<svg xmlns="http://www.w3.org/2000/svg" viewBox="0 0 512 512"><path fill="#c62828" d="M417.319 147.248l45.819-45.819c23.172-23.173 23.172-60.876 0-84.049-16.217-16.216-40.64-21.664-62.219-13.881-17.458 6.296-36.935 9.489-57.889 9.489h-49.633v30.001h49.633c24.434 0 47.335-3.791 68.067-11.268 10.695-3.857 22.794-1.158 30.827 6.874 11.475 11.475 11.475 30.147 0 41.622l-45.819 45.819-56.571-56.571-59.833 59.835c-17.125-4.837-112.741-28.685-191.195 49.769-76.032 76.032-76.032 199.747 0 275.779 72.954 72.954 196.396 79.383 275.779 0 51.658-51.658 68.204-125.323 49.668-191.093l59.937-59.937-56.571-56.57zm-7.071 77.784l-91.926-91.926 21.213-21.214 91.927 91.926-21.214 21.214z"/></svg>